<?xml version="1.0" encoding="UTF-8" standalone="no"?>
<svg
   xmlns:dc="http://purl.org/dc/elements/1.1/"
   xmlns:cc="http://creativecommons.org/ns#"
   xmlns:rdf="http://www.w3.org/1999/02/22-rdf-syntax-ns#"
   xmlns:svg="http://www.w3.org/2000/svg"
   xmlns="http://www.w3.org/2000/svg"
   xmlns:sodipodi="http://sodipodi.sourceforge.net/DTD/sodipodi-0.dtd"
   xmlns:inkscape="http://www.inkscape.org/namespaces/inkscape"
   width="512"
   height="512"
   viewBox="0 0 135.46668 135.46666"
   version="1.1"
   id="svg8"
   inkscape:export-filename="C:\Users\aleks\Desktop\favicon_d.png"
   inkscape:export-xdpi="96"
   inkscape:export-ydpi="96"
   sodipodi:docname="logo_dictionary1.svg"
   inkscape:version="1.0 (4035a4fb49, 2020-05-01)">
  <defs
     id="defs2">
    <inkscape:path-effect
       only_selected="false"
       apply_with_weight="true"
       apply_no_weight="true"
       helper_size="0"
       steps="2"
       weight="33.333333"
       lpeversion="1"
       is_visible="true"
       id="path-effect885"
       effect="bspline" />
    <inkscape:path-effect
       only_selected="false"
       apply_with_weight="true"
       apply_no_weight="true"
       helper_size="0"
       steps="2"
       weight="33.333333"
       lpeversion="1"
       is_visible="true"
       id="path-effect876"
       effect="bspline" />
    <inkscape:path-effect
       only_selected="false"
       apply_with_weight="true"
       apply_no_weight="true"
       helper_size="0"
       steps="2"
       weight="33.333333"
       lpeversion="1"
       is_visible="true"
       id="path-effect6282"
       effect="bspline" />
    <inkscape:path-effect
       only_selected="false"
       apply_with_weight="true"
       apply_no_weight="true"
       helper_size="0"
       steps="2"
       weight="33.333333"
       lpeversion="1"
       is_visible="true"
       id="path-effect6273"
       effect="bspline" />
    <inkscape:path-effect
       only_selected="false"
       apply_with_weight="true"
       apply_no_weight="true"
       helper_size="0"
       steps="2"
       weight="33.333333"
       lpeversion="1"
       is_visible="true"
       id="path-effect6254"
       effect="bspline" />
    <inkscape:path-effect
       effect="bspline"
       id="path-effect6235"
       is_visible="true"
       lpeversion="1"
       weight="33.333333"
       steps="2"
       helper_size="0"
       apply_no_weight="true"
       apply_with_weight="true"
       only_selected="false" />
  </defs>
  <sodipodi:namedview
     id="base"
     pagecolor="#ffffff"
     bordercolor="#666666"
     borderopacity="1.0"
     inkscape:pageopacity="0.0"
     inkscape:pageshadow="2"
     inkscape:zoom="1"
     inkscape:cx="130.89445"
     inkscape:cy="283.97367"
     inkscape:document-units="mm"
     inkscape:current-layer="layer2"
     inkscape:document-rotation="0"
     showgrid="false"
     units="px"
     inkscape:pagecheckerboard="true"
     inkscape:snap-smooth-nodes="true"
     inkscape:window-width="1920"
     inkscape:window-height="986"
     inkscape:window-x="-11"
     inkscape:window-y="-11"
     inkscape:window-maximized="1" />
  <metadata
     id="metadata5">
    <rdf:RDF>
      <cc:Work
         rdf:about="">
        <dc:format>image/svg+xml</dc:format>
        <dc:type
           rdf:resource="http://purl.org/dc/dcmitype/StillImage" />
        <dc:title></dc:title>
      </cc:Work>
    </rdf:RDF>
  </metadata>
  <g
     inkscape:label="Layer 1"
     inkscape:groupmode="layer"
     id="layer1" />
  <g
     inkscape:groupmode="layer"
     id="layer2"
     inkscape:label="text">
    <path
       style="fill:#0000c8;stroke:#0000c8;stroke-width:2.64583;stroke-linecap:round;stroke-linejoin:round;stroke-miterlimit:4;stroke-dasharray:none;stroke-opacity:1;fill-opacity:1"
       d="M 1.7621233,52.467123 67.682327,1.754945 133.6026,52.467123 67.682327,103.17929 Z"
       id="path1420"
       sodipodi:nodetypes="ccccc" />
    <g
       style="font-size:61.4408px;line-height:1.25;font-family:sans-serif;fill:#ffffff;stroke:#0000c8;stroke-width:2.49516;stroke-miterlimit:4;stroke-dasharray:none;stroke-opacity:1"
       id="text6231"
       transform="matrix(0.77033228,0,0,1.4596444,-24.964826,1.2891278)"
       aria-label="MD">
      <g
         style="opacity:1;stroke:#0000c8;stroke-width:2.49516;stroke-miterlimit:4;stroke-dasharray:none;stroke-opacity:1"
         id="g5911">
        <path
           id="path5913"
           d="M 119.1156,57.166977 H 107.65545 V 27.256588 L 99.375342,46.66684 H 91.425238 L 83.145131,27.256588 V 57.166977 H 72.284989 V 12.496395 h 13.380175 l 10.05013,22.410292 10.020126,-22.410292 h 13.38018 z"
           style="color:#000000;font-style:normal;font-variant:normal;font-weight:bold;font-stretch:normal;font-size:medium;line-height:1.25;font-family:sans-serif;-inkscape-font-specification:'sans-serif Bold';font-variant-ligatures:normal;font-variant-position:normal;font-variant-caps:normal;font-variant-numeric:normal;font-variant-alternates:normal;font-variant-east-asian:normal;font-feature-settings:normal;font-variation-settings:normal;text-indent:0;text-align:start;text-decoration:none;text-decoration-line:none;text-decoration-style:solid;text-decoration-color:#000000;letter-spacing:normal;word-spacing:normal;text-transform:none;writing-mode:lr-tb;direction:ltr;text-orientation:mixed;dominant-baseline:auto;baseline-shift:baseline;text-anchor:start;white-space:normal;shape-padding:0;shape-margin:0;inline-size:0;clip-rule:nonzero;display:inline;overflow:visible;visibility:visible;isolation:auto;mix-blend-mode:normal;color-interpolation:sRGB;color-interpolation-filters:linearRGB;solid-color:#000000;solid-opacity:1;vector-effect:none;fill:#ffffff;fill-opacity:1;fill-rule:nonzero;stroke:#0000c8;stroke-width:2.49516;stroke-linecap:butt;stroke-linejoin:miter;stroke-miterlimit:4;stroke-dasharray:none;stroke-dashoffset:0;stroke-opacity:1;color-rendering:auto;image-rendering:auto;shape-rendering:auto;text-rendering:auto;enable-background:accumulate;stop-color:#000000;stop-opacity:1" />
        <path
           id="path5915"
           d="m 72.152344,12.363281 v 44.935547 h 11.125 V 27.904297 l 8.060547,18.894531 h 8.125 l 8.060549,-18.894531 v 29.394531 h 11.72461 V 57.166016 12.363281 H 105.65039 L 95.714844,34.583984 85.75,12.363281 Z m 0.265625,0.265625 H 85.580078 L 95.714844,35.230469 105.82031,12.628906 h 13.16211 v 44.40625 H 107.78711 V 27.255859 l -0.25391,-0.05078 -8.246091,19.330078 h -7.77539 l -8.244141,-19.330078 -0.253906,0.05078 V 57.035156 H 72.417969 Z"
           style="color:#000000;font-style:normal;font-variant:normal;font-weight:bold;font-stretch:normal;font-size:medium;line-height:1.25;font-family:sans-serif;-inkscape-font-specification:'sans-serif Bold';font-variant-ligatures:normal;font-variant-position:normal;font-variant-caps:normal;font-variant-numeric:normal;font-variant-alternates:normal;font-variant-east-asian:normal;font-feature-settings:normal;font-variation-settings:normal;text-indent:0;text-align:start;text-decoration:none;text-decoration-line:none;text-decoration-style:solid;text-decoration-color:#000000;letter-spacing:normal;word-spacing:normal;text-transform:none;writing-mode:lr-tb;direction:ltr;text-orientation:mixed;dominant-baseline:auto;baseline-shift:baseline;text-anchor:start;white-space:normal;shape-padding:0;shape-margin:0;inline-size:0;clip-rule:nonzero;display:inline;overflow:visible;visibility:visible;isolation:auto;mix-blend-mode:normal;color-interpolation:sRGB;color-interpolation-filters:linearRGB;solid-color:#000000;solid-opacity:1;vector-effect:none;fill-opacity:1;fill-rule:nonzero;stroke:#0000c8;stroke-width:2.49516;stroke-linecap:butt;stroke-linejoin:miter;stroke-miterlimit:4;stroke-dasharray:none;stroke-dashoffset:0;stroke-opacity:1;color-rendering:auto;image-rendering:auto;shape-rendering:auto;text-rendering:auto;enable-background:accumulate;stop-color:#000000;stop-opacity:1" />
      </g>
      <g
         style="opacity:1;stroke:#0000c8;stroke-width:2.49516;stroke-miterlimit:4;stroke-dasharray:none;stroke-opacity:1"
         id="g5917">
        <path
           id="path5919"
           d="m 172.69629,34.876687 c 0,4.160054 -0.95001,7.890102 -2.85003,11.190145 -1.90003,3.280043 -4.30006,5.800076 -7.2001,7.560099 -2.18003,1.320017 -4.57006,2.240029 -7.17009,2.760036 -2.60003,0.520007 -5.68007,0.78001 -9.24012,0.78001 h -15.7502 V 12.496395 h 16.20021 c 3.64005,0 6.78009,0.310004 9.42012,0.930013 2.64003,0.600007 4.86006,1.460018 6.66009,2.580033 3.08004,1.880025 5.50007,4.420058 7.26009,7.620099 1.78002,3.180041 2.67003,6.93009 2.67003,11.250147 z m -11.91015,-0.09 c 0,-2.940039 -0.54001,-5.450071 -1.62002,-7.530098 -1.06001,-2.100027 -2.75004,-3.740049 -5.07007,-4.920064 -1.18001,-0.580008 -2.39003,-0.970013 -3.63004,-1.170016 -1.22002,-0.220003 -3.07005,-0.330004 -5.55008,-0.330004 h -2.91003 v 27.960364 h 2.91003 c 2.74004,0 4.75007,-0.120002 6.03008,-0.360005 1.28002,-0.260003 2.53004,-0.720009 3.75005,-1.380018 2.10003,-1.200015 3.64005,-2.800036 4.62006,-4.800062 0.98001,-2.020027 1.47002,-4.510059 1.47002,-7.470097 z"
           style="color:#000000;font-style:normal;font-variant:normal;font-weight:bold;font-stretch:normal;font-size:medium;line-height:1.25;font-family:sans-serif;-inkscape-font-specification:'sans-serif Bold';font-variant-ligatures:normal;font-variant-position:normal;font-variant-caps:normal;font-variant-numeric:normal;font-variant-alternates:normal;font-variant-east-asian:normal;font-feature-settings:normal;font-variation-settings:normal;text-indent:0;text-align:start;text-decoration:none;text-decoration-line:none;text-decoration-style:solid;text-decoration-color:#000000;letter-spacing:normal;word-spacing:normal;text-transform:none;writing-mode:lr-tb;direction:ltr;text-orientation:mixed;dominant-baseline:auto;baseline-shift:baseline;text-anchor:start;white-space:normal;shape-padding:0;shape-margin:0;inline-size:0;clip-rule:nonzero;display:inline;overflow:visible;visibility:visible;isolation:auto;mix-blend-mode:normal;color-interpolation:sRGB;color-interpolation-filters:linearRGB;solid-color:#000000;solid-opacity:1;vector-effect:none;fill:#ffffff;fill-opacity:1;fill-rule:nonzero;stroke:#0000c8;stroke-width:2.49516;stroke-linecap:butt;stroke-linejoin:miter;stroke-miterlimit:4;stroke-dasharray:none;stroke-dashoffset:0;stroke-opacity:1;color-rendering:auto;image-rendering:auto;shape-rendering:auto;text-rendering:auto;enable-background:accumulate;stop-color:#000000;stop-opacity:1" />
        <path
           id="path5921"
           d="m 130.35352,12.363281 v 44.935547 h 15.88281 c 3.56649,0 6.6542,-0.258966 9.26562,-0.78125 2.61417,-0.522834 5.01952,-1.449243 7.21289,-2.777344 2.92025,-1.772286 5.33658,-4.310999 7.2461,-7.607422 1.91201,-3.320874 2.86718,-7.075664 2.86718,-11.255859 0,-4.338226 -0.89305,-8.112132 -2.68554,-11.314453 -1.77045,-3.219008 -4.20768,-5.778345 -7.30664,-7.669922 v 0.002 c -1.81522,-1.129467 -4.04903,-1.995165 -6.69922,-2.597656 h -0.002 c -2.65285,-0.62283 -5.80246,-0.933594 -9.44922,-0.933594 z m 0.26367,0.265625 h 16.06836 c 3.63253,0 6.76376,0.308867 9.39062,0.925782 2.62902,0.597504 4.83475,1.454166 6.61914,2.564453 h 0.002 c 3.06111,1.868472 5.4633,4.389238 7.21289,7.570312 v 0.002 c 1.76755,3.157762 2.65429,6.88366 2.65429,11.185547 0,4.139914 -0.944,7.843836 -2.83203,11.123047 -1.89054,3.263663 -4.27446,5.765911 -7.1543,7.513672 -2.16667,1.311934 -4.543,2.226961 -7.1289,2.74414 -2.58865,0.51773 -5.65929,0.777344 -9.21289,0.777344 h -15.61914 z m 11.25586,8.076172 v 28.22461 h 3.04297 c 2.7439,0 4.75786,-0.120127 6.05468,-0.363282 h 0.002 c 1.29338,-0.262718 2.55646,-0.726815 3.78711,-1.392578 v -0.002 h 0.002 c 2.11982,-1.211325 3.68198,-2.833255 4.67383,-4.857422 0.99109,-2.042858 1.48242,-4.552706 1.48242,-7.527344 0,-2.955238 -0.54179,-5.487614 -1.63281,-7.589843 l -0.002,-0.002 c -1.07309,-2.124606 -2.78681,-3.786322 -5.12695,-4.976562 h -0.002 c -1.18974,-0.584789 -2.41219,-0.979284 -3.66407,-1.181641 -1.23542,-0.222781 -3.09027,-0.332031 -5.57421,-0.332031 z m 0.26562,0.263672 h 2.77735 c 2.47612,0 4.32273,0.110901 5.52734,0.328125 h 0.002 c 1.22608,0.197755 2.42144,0.584101 3.58985,1.158203 2.29902,1.16933 3.96666,2.787062 5.01367,4.861328 v 0.002 c 1.06826,2.057404 1.60547,4.544911 1.60547,7.46875 0,2.945439 -0.4881,5.414914 -1.45703,7.41211 -0.96819,1.975885 -2.48618,3.553481 -4.56641,4.742187 -1.20884,0.653768 -2.44487,1.108065 -3.71094,1.365235 -1.26328,0.2367 -3.26861,0.357421 -6.0039,0.357421 h -2.77735 z"
           style="color:#000000;font-style:normal;font-variant:normal;font-weight:bold;font-stretch:normal;font-size:medium;line-height:1.25;font-family:sans-serif;-inkscape-font-specification:'sans-serif Bold';font-variant-ligatures:normal;font-variant-position:normal;font-variant-caps:normal;font-variant-numeric:normal;font-variant-alternates:normal;font-variant-east-asian:normal;font-feature-settings:normal;font-variation-settings:normal;text-indent:0;text-align:start;text-decoration:none;text-decoration-line:none;text-decoration-style:solid;text-decoration-color:#000000;letter-spacing:normal;word-spacing:normal;text-transform:none;writing-mode:lr-tb;direction:ltr;text-orientation:mixed;dominant-baseline:auto;baseline-shift:baseline;text-anchor:start;white-space:normal;shape-padding:0;shape-margin:0;inline-size:0;clip-rule:nonzero;display:inline;overflow:visible;visibility:visible;isolation:auto;mix-blend-mode:normal;color-interpolation:sRGB;color-interpolation-filters:linearRGB;solid-color:#000000;solid-opacity:1;vector-effect:none;fill-opacity:1;fill-rule:nonzero;stroke:#0000c8;stroke-width:2.49516;stroke-linecap:butt;stroke-linejoin:miter;stroke-miterlimit:4;stroke-dasharray:none;stroke-dashoffset:0;stroke-opacity:1;color-rendering:auto;image-rendering:auto;shape-rendering:auto;text-rendering:auto;enable-background:accumulate;stop-color:#000000;stop-opacity:1" />
      </g>
    </g>
    <path
       style="fill:#ffffff;stroke:#0000c8;stroke-width:2.64583;stroke-linecap:round;stroke-linejoin:miter;stroke-miterlimit:10;stroke-dasharray:none;stroke-opacity:1;paint-order:markers fill stroke"
       d="m 1.7621233,52.467123 c 0.00162,10.295828 0.00325,20.588208 0.00487,30.877139"
       id="path6233"
       inkscape:path-effect="#path-effect6235"
       inkscape:original-d="m 1.7621233,52.467123 c -0.0077,10.295829 -0.00605,20.588209 0.00487,30.877139" />
    <path
       style="fill:none;stroke:#0000c8;stroke-width:2.64583;stroke-linecap:round;stroke-linejoin:round;stroke-miterlimit:10;stroke-dasharray:none;stroke-opacity:1;paint-order:stroke fill markers"
       d="M 1.7669933,83.344262 67.687227,134.05644 133.6076,83.34426"
       id="path6288"
       sodipodi:nodetypes="ccc" />
    <path
       inkscape:original-d="m 133.6026,52.467123 c -0.008,10.29583 -0.006,20.588207 0.005,30.877137"
       inkscape:path-effect="#path-effect876"
       id="path6233-34"
       d="m 133.6026,52.467123 c 0.002,10.295828 0.003,20.588205 0.005,30.877137"
       style="fill:#ffffff;stroke:#0000c8;stroke-width:2.64583;stroke-linecap:round;stroke-linejoin:miter;stroke-miterlimit:4;stroke-dasharray:none;stroke-opacity:1" />
    <path
       inkscape:original-d="m 67.682327,103.17929 c -0.0077,10.29583 -0.0061,20.58821 0.0049,30.87715"
       inkscape:path-effect="#path-effect885"
       id="path6233-4"
       d="m 67.682327,103.17929 c 0.0016,10.29583 0.0033,20.58821 0.0049,30.87715"
       style="fill:#ffffff;stroke:#0000c8;stroke-width:2.64583;stroke-linecap:round;stroke-linejoin:bevel;stroke-miterlimit:4;stroke-dasharray:none;stroke-opacity:1;paint-order:fill markers stroke" />
  </g>
</svg>
